# xmcd CD database file
#
# Track frame offsets:
#	150
#	15655
#	30940
#	45072
#	60235
#	73097
#	86952
#	100715
#	114670
#	125090
#	140050
#	153882
#	167382
#	179217
#	193302
#	207812
#	223562
#	238302
#	249785
#	264265
#
# Disc length: 3704 seconds
#
# Revision: 0
# Processed by: cddbd v1.4PL0 Copyright (c) Steve Scherf et al.
# Submitted via: CDex 1.50
#
DISCID=130e7614
DTITLE=Machito and His Afro-Cuban Orchestra - Mambo Mucho Mambo
DYEAR=2002
DGENRE=Jazz
TTITLE0=Holiday Mambo
TTITLE1=Donde Estas Tú
TTITLE2=Carambola
TTITLE3=Ay Que Mate
TTITLE4=Mambo A La Savoy
TTITLE5=Que Me Falta
TTITLE6=Amalia Los Invita
TTITLE7=Bongo Fiesta
TTITLE8=Oboe Mambo
TTITLE9=Contigo En La Distancia
TTITLE10=Freezelandia
TTITLE11=Hay Que Recordar
TTITLE12=Sambia
TTITLE13=Bee-Ree-Bee-Kym-Bee
TTITLE14=Sí Sí No No
TTITLE15=Mambo Inn
TTITLE16=Negro Nanamboro
TTITLE17=Adiós
TTITLE18=Bella Mora
TTITLE19=Mambo Mucho Mambo
EXTD=YEAR: 2002
EXTT0=
EXTT1=
EXTT2=
EXTT3=
EXTT4=
EXTT5=
EXTT6=
EXTT7=
EXTT8=
EXTT9=
EXTT10=
EXTT11=
EXTT12=
EXTT13=
EXTT14=
EXTT15=
EXTT16=
EXTT17=
EXTT18=
EXTT19=
PLAYORDER=
